Coordinates
version=1
nRows=10
nColumns=22
inDegrees=yes

Units are S.I. units (second, meters, Newtons, ...)
If the header above contains a line with 'inDegrees', this indicates whether rotational values are in degrees (yes) or radians (no).

endheader
time	pelvis_tilt	pelvis_list	pelvis_rotation	pelvis_tx	pelvis_ty	pelvis_tz	hip_flexion_r	hip_adduction_r	hip_rotation_r	knee_angle_r	ankle_angle_r	subtalar_angle_r	hip_flexion_l	hip_adduction_l	hip_rotation_l	knee_angle_l	ankle_angle_l	subtalar_angle_l	lumbar_extension	lumbar_bending	lumbar_rotation
      0.01000000	    -11.72404442	      2.04866904	    -22.60939188	     -1.28473653	      0.97870043	     -0.41880135	     18.71411897	      3.40732438	      0.12161389	    -18.97826331	     17.80322027	     -4.97329998	     17.18070808	     -0.97556613	     -6.29536527	    -17.14117129	     19.65279561	     -2.59065861	      4.11930040	      3.86452153	      6.27813033
      0.02000000	    -11.72437434	      2.05206206	    -22.58891904	     -1.28481663	      0.97870568	     -0.41872584	     18.71688099	      3.40995809	      0.12340138	    -18.97550530	     17.80242047	     -4.97284489	     17.18498280	     -0.97577362	     -6.29934525	    -17.13417533	     19.65427143	     -2.59026768	      4.11110401	      3.86438037	      6.27880153
      0.03000000	    -11.71626420	      2.06273746	    -22.53372105	     -1.28489878	      0.97872110	     -0.41867622	     18.70465348	      3.39255648	      0.09515865	    -18.95480620	     17.79762488	     -4.97404343	     17.19711913	     -0.95724266	     -6.27866569	    -17.14331318	     19.65486576	     -2.58302352	      4.09726022	      3.84853151	      6.22633979
      0.04000000	    -11.70665572	      2.06520222	    -22.46460370	     -1.28502722	      0.97873531	     -0.41863075	     18.70155004	      3.37940171	      0.04130977	    -18.95835888	     17.80977861	     -4.98520618	     17.21381118	     -0.94107932	     -6.21268446	    -17.16272969	     19.63990342	     -2.57374048	      4.07211039	      3.83629808	      6.19065713
      0.05000000	    -11.70906621	      2.06846899	    -22.37693290	     -1.28514366	      0.97873186	     -0.41858311	     18.70670189	      3.36556486	     -0.03205113	    -18.95775294	     17.82562825	     -5.00831200	     17.23972720	     -0.92507603	     -6.13650477	    -17.17151045	     19.63156420	     -2.56607056	      4.06768123	      3.82963353	      6.11987156
      0.06000000	    -11.71566972	      2.07286505	    -22.28914860	     -1.28533321	      0.97871123	     -0.41852062	     18.72191466	      3.35750505	     -0.08628721	    -18.96136733	     17.84078380	     -5.03371973	     17.29131554	     -0.91302476	     -6.05678297	    -17.21465626	     19.62221438	     -2.56147161	      4.05864442	      3.81737873	      6.06480389
      0.07000000	    -11.73737388	      2.07536149	    -22.18941141	     -1.28555799	      0.97866204	     -0.41845300	     18.75411625	      3.35585317	     -0.15129281	    -18.96864854	     17.85712905	     -5.06495798	     17.36770140	     -0.90756558	     -5.95562058	    -17.27210432	     19.61367545	     -2.55489216	      4.06414880	      3.80824702	      6.00387996
      0.08000000	    -11.77475053	      2.07541173	    -22.08467367	     -1.28582885	      0.97858295	     -0.41837663	     18.80532057	      3.36495229	     -0.21186354	    -18.98080363	     17.86947374	     -5.09841673	     17.47034215	     -0.91183130	     -5.84928900	    -17.34647285	     19.60615480	     -2.54745356	      4.08453051	      3.80353648	      5.94255936
      0.09000000	    -11.85164468	      2.08362991	    -21.97301659	     -1.28613508	      0.97843424	     -0.41829543	     18.90156253	      3.38027761	     -0.28834687	    -18.99387714	     17.86617393	     -5.14328916	     17.62433579	     -0.92331454	     -5.73224187	    -17.43380863	     19.60659630	     -2.53939167	      4.15313078	      3.80059851	      5.88921406
      0.10000000	    -11.90424993	      2.07489583	    -21.86560402	     -1.28646735	      0.97832448	     -0.41818935	     18.97180501	      3.40783521	     -0.34036753	    -19.01749526	     17.88877050	     -5.17585691	     17.74981789	     -0.94600974	     -5.62317921	    -17.52396659	     19.58974758	     -2.53354569	      4.18278810	      3.80160074	      5.81334239
